<svg xmlns="http://www.w3.org/2000/svg" width="296" height="24" viewBox="0 0 296 24" fill="none">
<path fill-rule="evenodd" clip-rule="evenodd" d="M140.601 0.26738C122.228 0.521699 86.8869 4.95697 53.6111 11.1846C50.9278 11.6868 47.3927 12.3489 45.7554 12.6559C23.677 16.7958 11.7965 19.4386 3.46836 22.0629C0.21813 23.0872 -0.0616999 23.2131 0.0175531 23.6161C0.13331 24.2042 0.660791 24.1219 6.68619 22.576C12.9212 20.9764 18.5051 19.8315 33.8143 17.0139C84.9807 7.59669 108.863 4.22482 135.617 2.64083C140.86 2.33038 149.223 2.53012 149.216 2.96554C149.207 3.54717 143.93 5.44837 131.72 9.26863C116.7 13.9685 107.552 17.099 106.735 17.8188C105.339 19.0486 106.838 19.9755 110.117 19.9086C111.99 19.8703 112.416 19.8258 121.018 18.7698C145.715 15.7376 161.492 14.2496 182.863 12.9368C215.409 10.9375 236.135 10.3369 275.083 10.264C289.079 10.2379 289.803 10.215 292.394 9.71731C293.392 9.52548 294.584 9.3414 295.043 9.30815C296.117 9.23042 296.106 9.10922 295.014 9.00284C294.539 8.95646 293.448 8.75362 292.589 8.55203C290.473 8.05498 289.065 8.00864 276.932 8.03647C236.258 8.12968 214.847 8.72953 183.806 10.6454C167.481 11.653 160.205 12.2255 148.309 13.4384C140.178 14.2675 118.709 16.7159 115.7 17.1572C114.059 17.3981 121.206 14.9953 133.756 11.0878C149.631 6.14488 152.797 4.78441 152.841 2.88808C152.891 0.749681 150.03 0.137003 140.601 0.26738Z" fill="#3491AA"/>
</svg>