<svg width="175" height="26" viewBox="0 0 175 26" fill="none" xmlns="http://www.w3.org/2000/svg">
<path d="M62.3651 19.8889C67.8364 20.4278 73.3077 20.9164 78.7725 21.5199C86.4815 22.3749 94.1775 23.3448 101.854 24.5518C102.372 24.6309 103.089 24.5734 103.076 25.335C103.057 26.1397 102.307 25.9888 101.815 25.9888C92.6577 25.9529 83.5 26.1468 74.3489 25.2703C67.6876 24.6309 60.994 24.3579 54.3133 23.9627C52.6642 23.8621 51.0344 23.6753 49.4306 23.2873C48.2665 23 47.2964 22.3605 47.2058 20.8876C47.1218 19.4435 47.956 18.5957 49.0619 18.0999C52.3085 16.6342 55.7814 16.2247 59.2026 15.6931C68.9746 14.1914 78.7984 13.2215 88.6415 12.4743C100.528 11.5762 112.415 10.7212 124.296 9.70095C136.635 8.63761 148.981 7.57428 161.256 5.67032C155.907 5.4907 150.565 4.9159 145.211 5.33261C144.156 5.41164 143.102 5.49069 142.048 5.48351C130.763 5.41885 119.497 5.9505 108.231 6.50373C96.2664 7.0857 84.3084 7.89761 72.3634 8.83163C60.0627 9.7872 47.7814 11.0229 35.4872 12.115C27.2414 12.8407 18.9827 13.5232 10.737 14.2273C8.2212 14.4429 5.71192 14.7518 3.19616 14.9027C1.96738 14.9746 0.221194 15.3985 0.0142422 13.4801C-0.173308 11.7127 1.53407 11.8133 2.62704 11.6049C13.1687 9.62194 23.8008 8.37177 34.4201 7.04259C47.0829 5.45476 59.7782 4.23338 72.4863 3.21315C81.5599 2.48749 90.6464 1.92708 99.7393 1.42415C115.287 0.56198 130.84 -0.0343845 146.407 0.00153928C154.161 0.0230935 161.916 0.0949516 169.618 1.17985C170.717 1.33791 171.81 1.63967 172.878 1.98454C174.1 2.38688 174.96 3.26342 174.999 4.76503C175.038 6.2882 174.145 7.15035 172.994 7.66766C170.912 8.60886 168.687 8.99685 166.488 9.34891C158.469 10.6493 150.41 11.5115 142.333 12.2515C132.8 13.1281 123.274 14.0406 113.741 14.874C106.899 15.4775 100.043 15.9445 93.201 16.5337C82.9115 17.4174 72.6222 18.3586 62.3716 19.9033L62.3651 19.8889Z" fill="#085C44"/>
</svg>
