<svg width="71" height="50" viewBox="0 0 71 50" fill="none" xmlns="http://www.w3.org/2000/svg">
<rect x="0.5" y="0.5" width="70" height="49" rx="3.5" fill="white"/>
<rect x="0.5" y="0.5" width="70" height="49" rx="3.5" stroke="#F2F4F7"/>
<path d="M45.0587 10.479C52.8786 10.4792 59.2177 16.7283 59.2179 24.437C59.2179 32.1459 52.8787 38.3958 45.0587 38.396C41.5533 38.396 38.3459 37.139 35.8732 35.0591C33.4006 37.1386 30.1945 38.3959 26.6896 38.396C18.8694 38.396 12.5294 32.146 12.5294 24.437C12.5296 16.7282 18.8695 10.479 26.6896 10.479C30.1941 10.4791 33.4007 11.7349 35.8732 13.814C38.3458 11.7344 41.5537 10.479 45.0587 10.479Z" fill="#ED0006"/>
<path d="M45.0583 10.479C52.8784 10.479 59.2183 16.7282 59.2185 24.437C59.2185 32.146 52.8785 38.396 45.0583 38.396C41.5533 38.396 38.3464 37.1396 35.8737 35.0601C38.9179 32.4998 40.8483 28.6908 40.8483 24.437C40.8482 20.1832 38.918 16.3741 35.8737 13.814C38.3463 11.7346 41.5535 10.479 45.0583 10.479Z" fill="#F9A000"/>
<path d="M35.8734 13.8154C38.9174 16.3756 40.849 20.1839 40.849 24.4375C40.8489 28.6909 38.9173 32.4985 35.8734 35.0586C32.8298 32.4985 30.8989 28.6907 30.8988 24.4375C30.8988 20.184 32.8297 16.3756 35.8734 13.8154Z" fill="#FF5E00"/>
</svg>
