<svg xmlns="http://www.w3.org/2000/svg" width="36" height="36" viewBox="0 0 36 36" fill="none">
<path fill-rule="evenodd" clip-rule="evenodd" d="M4.5 12.75C4.5 11.9216 5.17157 11.25 6 11.25L30 11.25C30.8284 11.25 31.5 11.9216 31.5 12.75C31.5 13.5784 30.8284 14.25 30 14.25L6 14.25C5.17157 14.25 4.5 13.5784 4.5 12.75Z" fill="#0D0D0D"/>
<path fill-rule="evenodd" clip-rule="evenodd" d="M4.5 23.25C4.5 22.4216 5.17157 21.75 6 21.75L30 21.75C30.8284 21.75 31.5 22.4216 31.5 23.25C31.5 24.0784 30.8284 24.75 30 24.75L6 24.75C5.17157 24.75 4.5 24.0784 4.5 23.25Z" fill="#0D0D0D"/>
</svg>