<svg xmlns="http://www.w3.org/2000/svg" width="71" height="50" viewBox="0 0 71 50" fill="none">
<rect x="0.5" y="0.5" width="70" height="49" rx="3.5" fill="white"/>
<rect x="0.5" y="0.5" width="70" height="49" rx="3.5" stroke="#F2F4F7"/>
<path fill-rule="evenodd" clip-rule="evenodd" d="M22.4491 33.038H18.1478L14.9224 20.4008C14.7693 19.8195 14.4443 19.3056 13.9661 19.0633C12.7729 18.4546 11.458 17.9702 10.0235 17.7259V17.2394H16.9525C17.9088 17.2394 18.626 17.9702 18.7455 18.819L20.419 27.9347L24.7182 17.2394H28.8998L22.4491 33.038ZM31.2906 33.038H27.2284L30.5734 17.2394H34.6355L31.2906 33.038ZM39.8909 21.6161C40.0105 20.7652 40.7277 20.2786 41.5644 20.2786C42.8793 20.1565 44.3117 20.4008 45.5071 21.0074L46.2243 17.6059C45.0289 17.1193 43.714 16.875 42.5207 16.875C38.5781 16.875 35.7092 19.0633 35.7092 22.1005C35.7092 24.411 37.7414 25.6242 39.1758 26.355C40.7277 27.0838 41.3254 27.5703 41.2058 28.2991C41.2058 29.3922 40.0105 29.8787 38.8172 29.8787C37.3828 29.8787 35.9483 29.5143 34.6355 28.9056L33.9183 32.3093C35.3527 32.9159 36.9046 33.1602 38.3391 33.1602C42.7598 33.2802 45.5071 31.094 45.5071 27.8125C45.5071 23.6802 39.8909 23.4379 39.8909 21.6161ZM59.7235 33.038L56.4981 17.2394H53.0337C52.3164 17.2394 51.5992 17.7259 51.3602 18.4546L45.3875 33.038H49.5692L50.4039 30.7296H55.5418L56.02 33.038H59.7235ZM53.6314 21.4939L54.8246 27.4482H51.4797L53.6314 21.4939Z" fill="#0040C1"/>
</svg>