<svg width="60" height="60" viewBox="0 0 60 60" fill="none" xmlns="http://www.w3.org/2000/svg">
<circle cx="30" cy="30" r="30" fill="#3491AA"/>
<path d="M43.1699 27.7969C43.3734 27.8995 43.3772 28.2164 43.3848 28.8506L43.4375 33.2812C43.3976 35.1139 43.3653 36.5959 43.1553 37.79C42.9343 39.0458 42.5048 40.0693 41.6221 40.9443C40.7364 41.8222 39.6887 42.2465 38.4014 42.4678C37.1709 42.6792 35.6353 42.7166 33.7256 42.7637L33.6533 42.7656C31.2107 42.8259 28.7893 42.8259 26.3467 42.7656L26.2744 42.7637C24.3647 42.7166 22.8291 42.6792 21.5986 42.4678C20.3113 42.2465 19.2636 41.8222 18.3779 40.9443C17.4953 40.0694 17.0657 39.0466 16.8447 37.791C16.6346 36.5968 16.6024 35.1142 16.5625 33.2812L16.6152 28.8506C16.6228 28.2164 16.6266 27.8995 16.8301 27.7969C17.0338 27.6944 17.2909 27.8799 17.8047 28.252L22.2842 31.4971C22.87 31.9214 23.411 32.313 23.9121 32.6689C24.6403 33.1863 25.3122 33.5475 26.0547 33.7705C26.7927 33.9921 27.5485 34.0615 28.4209 34.0615H31.5801C32.4525 34.0615 33.2082 33.9922 33.9463 33.7705C34.6887 33.5475 35.3598 33.1861 36.0879 32.6689C36.5889 32.313 37.1301 31.9214 37.7158 31.4971L42.1953 28.2529C42.7093 27.8806 42.9662 27.6944 43.1699 27.7969ZM30.001 17.1875C30.9558 17.1875 31.8187 17.4706 32.7529 17.9473C33.6565 18.4084 34.6966 19.0889 35.999 19.9404L40.9033 23.1465C41.7747 23.7147 42.4693 24.1678 42.8799 24.8848C42.9337 24.9787 42.9612 25.0254 42.9717 25.0947C42.9835 25.1727 42.9621 25.2793 42.9209 25.3467C42.8842 25.4065 42.8303 25.4472 42.7236 25.5283L41.9434 26.1221L36.6201 29.9775C36.0315 30.4039 35.4973 30.7911 35.0039 31.1416C34.387 31.5798 33.8997 31.828 33.4082 31.9756C32.9126 32.1244 32.3586 32.1875 31.582 32.1875H28.4219C27.6451 32.1875 27.0905 32.1245 26.5947 31.9756C26.1034 31.828 25.6167 31.5797 25 31.1416C24.5065 30.7911 23.9724 30.4039 23.3838 29.9775L18.0566 26.1191L17.2891 25.5498C17.1697 25.4612 17.1101 25.4166 17.0713 25.3496C17.0356 25.2878 17.0156 25.1911 17.0234 25.1201C17.0321 25.0431 17.0618 24.9899 17.1221 24.8848C17.5326 24.1679 18.2274 23.7146 19.0986 23.1465L24.0039 19.9404C25.3064 19.0889 26.3464 18.4083 27.25 17.9473C28.1841 17.4706 29.0463 17.1876 30.001 17.1875Z" fill="#CFF6E9"/>
</svg>
